# xmcd
#
# Track frame offsets:
#	150
#	19931
#	44121
#	77581
#	108673
#	129644
#
# Disc length: 2414 seconds
#
# Revision: 10
# Processed by: cddbd v1.5.2PL0 Copyright (c) Steve Scherf et al.
# Submitted via: Jack! The Knife 20 Magnifico
#
DISCID=4f096c06
DTITLE=Lou Reed and Metallica - Lulu [CD 1)
DYEAR=2011
DGENRE=Heavy Metal
TTITLE0=Brandenburg Gate
TTITLE1=The View
TTITLE2=Pumping Blood
TTITLE3=Mistress Dread
TTITLE4=Iced Honey
TTITLE5=Cheat On Me
EXTD=Lou Reed, Metallica, Hal Willner and Greg Fidelman
EXTT0=Lou Reed, Metallica
EXTT1=Lou Reed, Metallica
EXTT2=Lou Reed, Metallica
EXTT3=Lou Reed, Metallica
EXTT4=Lou Reed, Metallica
EXTT5=Lou Reed, Metallica
PLAYORDER=
